<?xml version="1.0" encoding="UTF-8" standalone="no"?>
<!-- Created with Inkscape (http://www.inkscape.org/) -->

<svg
   width="71.808411mm"
   height="25.040575mm"
   viewBox="0 0 271.40187 94.641546"
   version="1.1"
   id="svg1"
   xml:space="preserve"
   inkscape:version="1.3 (0e150ed6c4, 2023-07-21)"
   sodipodi:docname="qsym2_logo_no_background_dark.svg"
   inkscape:export-filename="..\..\..\OneDrive\Desktop\qsym2_logo.pdf"
   inkscape:export-xdpi="300"
   inkscape:export-ydpi="300"
   xmlns:inkscape="http://www.inkscape.org/namespaces/inkscape"
   xmlns:sodipodi="http://sodipodi.sourceforge.net/DTD/sodipodi-0.dtd"
   xmlns="http://www.w3.org/2000/svg"
   xmlns:svg="http://www.w3.org/2000/svg">&#10;   <defs
   id="defs1">&#10;        <style
   id="style1">&#10;            @import url('https://fonts.googleapis.com/css2?family=Outfit:wght@600');&#10;        </style>&#10;   </defs>&#10;   <sodipodi:namedview
   id="namedview1"
   pagecolor="#ffffff"
   bordercolor="#999999"
   borderopacity="1"
   inkscape:showpageshadow="2"
   inkscape:pageopacity="0"
   inkscape:pagecheckerboard="0"
   inkscape:deskcolor="#d1d1d1"
   inkscape:document-units="mm"
   showgrid="false"
   inkscape:zoom="2"
   inkscape:cx="173"
   inkscape:cy="86.25"
   inkscape:window-width="1920"
   inkscape:window-height="1009"
   inkscape:window-x="-8"
   inkscape:window-y="-8"
   inkscape:window-maximized="1"
   inkscape:current-layer="layer1"
   inkscape:export-bgcolor="#ffffffff"><inkscape:grid
     id="grid1"
     units="px"
     originx="-257.30862"
     originy="-268.18881"
     spacingx="1"
     spacingy="1"
     empcolor="#3f3fff"
     empopacity="0.25098039"
     color="#3f3fff"
     opacity="0.12549"
     empspacing="5"
     dotted="false"
     gridanglex="30"
     gridanglez="30"
     visible="false" /></sodipodi:namedview><defs
   id="defs2" /><g
   inkscape:label="Layer 1"
   inkscape:groupmode="layer"
   id="layer1"
   transform="translate(-257.30863,-268.18882)"><g
     id="text1-5-5"
     style="font-size:53.3333px;line-height:1.25;letter-spacing:1px;word-spacing:0px;fill:#112534;fill-opacity:1;stroke-width:0.734568;stroke-linecap:square;stroke-linejoin:round"
     inkscape:label="qsym2"
     aria-label="QSym2"><path
       style="font-weight:500;font-family:Outfit;-inkscape-font-specification:'Outfit Medium';fill:#112534;fill-opacity:1"
       d="m 373.67055,340.30958 q -4,0 -7.46666,-1.49333 -3.46667,-1.49334 -6.08,-4.10667 -2.61333,-2.66666 -4.10666,-6.13333 -1.44,-3.52 -1.44,-7.51999 0,-4 1.44,-7.46667 1.49333,-3.46666 4.05333,-6.07999 2.61333,-2.66667 6.02666,-4.10667 3.46667,-1.49333 7.46666,-1.49333 4,0 7.41333,1.49333 3.46667,1.44 6.08,4.10667 2.61333,2.61333 4.05333,6.13333 1.49333,3.46666 1.49333,7.46666 0,4 -1.49333,7.52 -1.44,3.46666 -4.05333,6.07999 -2.56,2.61333 -6.02666,4.10667 -3.41333,1.49333 -7.36,1.49333 z m 17.06666,2.02666 -16.79999,-16.79999 3.94666,-3.94666 16.79999,16.79999 z m -17.17333,-7.89333 q 3.78667,0 6.61333,-1.70666 2.88,-1.70667 4.48,-4.69333 1.65333,-3.04 1.65333,-6.98666 0,-2.93334 -0.96,-5.33333 -0.90666,-2.45334 -2.61333,-4.21333 -1.70666,-1.81334 -4.05333,-2.77334 -2.29333,-0.96 -5.12,-0.96 -3.73333,0 -6.61332,1.70667 -2.82667,1.65333 -4.48,4.64 -1.6,2.98666 -1.6,6.93333 0,2.93333 0.90667,5.43999 0.95999,2.45333 2.61333,4.21333 1.70666,1.76 4.05333,2.77334 2.34666,0.95999 5.11999,0.95999 z m 38.0133,5.86667 q -4.42666,0 -7.52,-1.6 -3.09333,-1.6 -5.54666,-4.69333 l 4.16,-4.16 q 1.54666,2.24 3.68,3.52 2.13333,1.22666 5.43999,1.22666 3.09334,0 4.90667,-1.27999 1.86666,-1.28 1.86666,-3.52 0,-1.86667 -0.96,-3.04 -0.96,-1.17333 -2.56,-1.92 -1.54666,-0.8 -3.46666,-1.38667 -1.86667,-0.63999 -3.78666,-1.38666 -1.86667,-0.8 -3.46667,-1.97333 -1.54666,-1.17334 -2.50666,-3.04 -0.96,-1.86667 -0.96,-4.74667 0,-3.30666 1.6,-5.59999 1.65333,-2.34667 4.42666,-3.57333 2.77333,-1.22667 6.18666,-1.22667 3.68,0 6.56,1.44 2.93333,1.44 4.74666,3.68 l -4.15999,4.16 q -1.6,-1.81334 -3.36,-2.66667 -1.70667,-0.90667 -3.94667,-0.90667 -2.77333,0 -4.37333,1.12 -1.54666,1.12 -1.54666,3.14667 0,1.70666 0.96,2.77333 0.96,1.01333 2.50666,1.76 1.6,0.69333 3.46667,1.33333 1.91999,0.64 3.78666,1.44 1.92,0.8 3.46666,2.08 1.6,1.22667 2.56,3.2 0.96,1.97333 0.96,4.95999 0,5.01333 -3.57333,7.94667 -3.52,2.93333 -9.54666,2.93333 z m 26.92,-0.26667 -10.93333,-25.86665 h 6.45333 l 7.46667,18.98666 h -1.86667 l 7.89333,-18.98666 h 6.50666 l -11.89332,25.86665 z m -7.62666,10.4 7.94666,-16.37333 3.30667,5.97333 -4.74667,10.4 z m 27.34668,-10.66666 v -25.59999 h 5.86666 v 25.59999 z m 17.01332,0 v -15.25333 q 0,-2.56 -1.6,-3.94666 -1.6,-1.44 -3.94666,-1.44 -1.6,0 -2.88,0.64 -1.22667,0.64 -1.97333,1.86666 -0.74667,1.17334 -0.74667,2.88 l -2.29333,-1.28 q 0,-2.93333 1.28,-5.06666 1.28,-2.13333 3.46666,-3.30667 2.18667,-1.22666 4.90667,-1.22666 2.72,0 4.90666,1.17333 2.18667,1.17333 3.46667,3.30666 1.27999,2.13334 1.27999,5.12 v 16.53333 z m 17.01332,0 v -15.25333 q 0,-2.56 -1.59999,-3.94666 -1.6,-1.44 -3.94667,-1.44 -1.54666,0 -2.82666,0.64 -1.28,0.64 -2.02667,1.86666 -0.74667,1.17334 -0.74667,2.88 l -3.30666,-1.28 q 0.26667,-2.93333 1.70667,-5.06666 1.44,-2.13333 3.67999,-3.30667 2.29334,-1.22666 5.01333,-1.22666 2.77334,0 5.01333,1.17333 2.24,1.17333 3.57334,3.30666 1.33333,2.13334 1.33333,5.12 v 16.53333 z"
       id="path1" /><path
       style="font-weight:500;font-family:Outfit;-inkscape-font-specification:'Outfit Medium';baseline-shift:super;fill:#112534;fill-opacity:1"
       d="m 503.37718,314.81626 13.75999,-14.61332 q 1.70667,-1.81334 2.77334,-3.25334 1.06666,-1.44 1.54666,-2.71999 0.48,-1.28 0.48,-2.61334 0,-2.50666 -1.65333,-3.89333 -1.6,-1.44 -4.10667,-1.44 -2.66666,0 -4.69333,1.33334 -2.02666,1.33333 -3.62666,4.15999 l -4.26666,-3.51999 q 2.18666,-3.78667 5.38666,-5.70667 3.2,-1.97333 7.41333,-1.97333 3.46666,0 6.07999,1.38667 2.61334,1.38666 4.05334,3.89333 1.43999,2.45333 1.43999,5.70666 0,2.34667 -0.58666,4.21333 -0.53333,1.81333 -1.86667,3.68 -1.33333,1.81333 -3.68,4.26666 l -10.55999,10.93333 z m 0,3.62666 v -3.62666 l 5.28,-1.86667 h 20.05332 v 5.49333 z"
       id="path13" /></g></g><g
   id="g3"
   transform="matrix(2.075872,0,0,2.075872,-186.52639,-600.88165)"
   inkscape:label="g3"><path
     style="display:inline;fill:#006c58;fill-opacity:1;stroke:none;stroke-width:0.546209;stroke-dasharray:none;stroke-opacity:1"
     d="m 109.61687,289.45988 v 22.81965 l 19.7624,11.40982 z"
     id="path7"
     inkscape:label="darkside-back"
     transform="translate(-1.1943945e-6)"
     sodipodi:nodetypes="cccc" /><path
     style="display:inline;fill:#00382e;fill-opacity:1;stroke:none;stroke-width:1.13386;stroke-dasharray:none;stroke-opacity:1"
     d="m 292.19098,307.96281 -41.0242,23.68534 h 82.04842 z"
     id="path9"
     transform="matrix(0.48172524,0,0,0.48172524,-31.138901,163.92607)"
     inkscape:label="lightside-backbottom"
     sodipodi:nodetypes="cccc" /><path
     style="display:inline;fill:#008970;fill-opacity:1;stroke:none;stroke-width:1.13386;stroke-dasharray:none;stroke-opacity:1"
     d="m 292.19099,260.59213 -41.0242,71.056 41.0242,-23.65 z"
     id="path8"
     transform="matrix(0.48172524,0,0,0.48172524,-31.138901,163.92607)"
     inkscape:label="lightside-backleft"
     sodipodi:nodetypes="cccc" /><path
     sodipodi:type="star"
     style="display:none;fill:none;fill-opacity:1;stroke:#000000;stroke-width:0.546208;stroke-linecap:square;stroke-linejoin:round;stroke-miterlimit:4.5;stroke-dasharray:none;stroke-opacity:1"
     id="path29"
     inkscape:flatsided="false"
     sodipodi:sides="3"
     sodipodi:cx="65.168793"
     sodipodi:cy="336.09525"
     sodipodi:r1="22.819651"
     sodipodi:r2="11.409826"
     sodipodi:arg1="0.52359878"
     sodipodi:arg2="1.5707963"
     inkscape:rounded="0"
     inkscape:randomized="0"
     d="m 84.93119,347.50507 -19.762397,0 -19.762397,0 9.881197,-17.11474 9.8812,-17.11474 9.881199,17.11474 z"
     inkscape:transform-center-y="-5.7049128"
     transform="translate(44.448079,-23.815716)"
     inkscape:label="back-trig-outline" /><path
     style="display:inline;fill:#28917e;fill-opacity:1;stroke:none;stroke-width:0.546209;stroke-dasharray:none;stroke-opacity:1"
     d="m 109.61687,300.82122 9.86021,17.1511 9.90219,-17.1511 z"
     id="path10"
     inkscape:label="darkside-mid"
     sodipodi:nodetypes="cccc" /><path
     style="display:inline;fill:#206a5e;fill-opacity:1;stroke:none;stroke-width:0.546209;stroke-dasharray:none;stroke-opacity:1"
     d="m 99.760359,317.97872 19.716721,-0.006 -9.86021,17.07838 z"
     id="path11"
     inkscape:label="lightside-midbottom"
     sodipodi:nodetypes="cccc" /><path
     style="display:inline;fill:#3ba18f;fill-opacity:1;stroke:none;stroke-width:0.546209;stroke-dasharray:none;stroke-opacity:1"
     d="m 89.854475,300.82122 h 19.762395 l -9.856511,17.1575 z"
     id="path12"
     inkscape:label="lightside-midleft"
     sodipodi:nodetypes="cccc" /><path
     sodipodi:type="star"
     style="display:none;fill:none;fill-opacity:1;stroke:#000000;stroke-width:0.546208;stroke-linecap:square;stroke-linejoin:round;stroke-miterlimit:4.5;stroke-dasharray:none;stroke-opacity:1"
     id="path29-5"
     inkscape:flatsided="false"
     sodipodi:sides="3"
     sodipodi:cx="65.168793"
     sodipodi:cy="336.09525"
     sodipodi:r1="22.819651"
     sodipodi:r2="11.409826"
     sodipodi:arg1="0.52359878"
     sodipodi:arg2="1.5707963"
     inkscape:rounded="0"
     inkscape:randomized="0"
     d="m 84.93119,347.50507 -19.762397,0 -19.762397,0 9.881197,-17.11474 9.8812,-17.11474 9.881199,17.11474 z"
     inkscape:transform-center-y="5.7049169"
     transform="matrix(1,0,0,-1,44.448079,648.32629)"
     inkscape:label="mid-trig-outline" /><path
     style="display:none;fill:#397b22;fill-opacity:1;stroke:none;stroke-width:0.546209;stroke-dasharray:none;stroke-opacity:1"
     d="m 109.61687,312.28128 v -11.40307 l 9.8812,17.05775 z"
     id="path4"
     inkscape:label="darkside-top" /><path
     style="display:none;fill:#4ca42d;fill-opacity:1;stroke:none;stroke-width:0.546209;stroke-dasharray:none;stroke-opacity:1"
     d="m 109.61687,300.87821 -9.881197,17.05775 9.881197,-5.65468 z"
     id="path5"
     inkscape:label="lightside-topleft" /><path
     style="display:none;fill:#4ca42d;fill-opacity:1;stroke:none;stroke-width:0.546209;stroke-dasharray:none;stroke-opacity:1"
     d="m 99.735673,317.93596 9.881197,-5.65468 9.8812,5.71081 z"
     id="path6"
     inkscape:label="lightside-topbottom" /><path
     style="display:none;fill:none;fill-opacity:1;stroke:#000000;stroke-width:0.546208;stroke-dasharray:none;stroke-opacity:1"
     d="m 109.61687,300.82122 9.85688,17.15685 -19.738077,-0.0421 z"
     id="path3"
     inkscape:label="top-trig-outline" /><path
     style="display:none;fill:none;stroke:#000000;stroke-width:0.546208;stroke-linecap:butt;stroke-linejoin:miter;stroke-dasharray:none;stroke-opacity:1"
     d="m 109.61687,289.45988 v 22.83667 -0.017"
     id="path30"
     sodipodi:nodetypes="ccc"
     inkscape:label="radialline-top" /><path
     style="display:none;fill:none;stroke:#000000;stroke-width:0.546208;stroke-linecap:butt;stroke-linejoin:miter;stroke-dasharray:none;stroke-opacity:1"
     d="m 129.37927,323.68936 -19.7624,-11.39454"
     id="path32"
     sodipodi:nodetypes="cc"
     inkscape:label="radialline-right" /><path
     style="display:none;fill:#ffffff;stroke:#000000;stroke-width:0.546208;stroke-dasharray:none;stroke-opacity:1"
     d="M 89.854474,323.68935 109.61687,312.28128"
     id="path2"
     inkscape:label="radialline-left" /></g></svg>
