<?xml version="1.0" encoding="UTF-8" standalone="no"?>
<!-- Created with Inkscape (http://www.inkscape.org/) -->

<svg
   width="71.808411mm"
   height="25.040575mm"
   viewBox="0 0 271.40187 94.641546"
   version="1.1"
   id="svg1"
   xml:space="preserve"
   inkscape:version="1.3 (0e150ed6c4, 2023-07-21)"
   sodipodi:docname="qsym2_logo_no_background_dark_new.svg"
   inkscape:export-filename="..\..\..\OneDrive\Desktop\qsym2_logo.pdf"
   inkscape:export-xdpi="300"
   inkscape:export-ydpi="300"
   xmlns:inkscape="http://www.inkscape.org/namespaces/inkscape"
   xmlns:sodipodi="http://sodipodi.sourceforge.net/DTD/sodipodi-0.dtd"
   xmlns="http://www.w3.org/2000/svg"
   xmlns:svg="http://www.w3.org/2000/svg">&#10;   <defs
   id="defs1">&#10;        <style
   id="style1">&#10;            @import url('https://fonts.googleapis.com/css2?family=Outfit:wght@600');&#10;        </style>&#10;   </defs>&#10;   <sodipodi:namedview
   id="namedview1"
   pagecolor="#ffffff"
   bordercolor="#999999"
   borderopacity="1"
   inkscape:showpageshadow="2"
   inkscape:pageopacity="0"
   inkscape:pagecheckerboard="0"
   inkscape:deskcolor="#d1d1d1"
   inkscape:document-units="mm"
   showgrid="false"
   inkscape:zoom="2"
   inkscape:cx="113"
   inkscape:cy="-24.25"
   inkscape:window-width="1920"
   inkscape:window-height="1009"
   inkscape:window-x="-8"
   inkscape:window-y="-8"
   inkscape:window-maximized="1"
   inkscape:current-layer="layer1"
   inkscape:export-bgcolor="#ffffffff"><inkscape:grid
     id="grid1"
     units="px"
     originx="-257.30862"
     originy="-268.18881"
     spacingx="1"
     spacingy="1"
     empcolor="#3f3fff"
     empopacity="0.25098039"
     color="#3f3fff"
     opacity="0.12549"
     empspacing="5"
     dotted="false"
     gridanglex="30"
     gridanglez="30"
     visible="false" /></sodipodi:namedview><defs
   id="defs2" /><g
   inkscape:label="Layer 1"
   inkscape:groupmode="layer"
   id="layer1"
   transform="translate(-257.30863,-268.18882)"><g
     id="text1"
     style="font-size:53.3333px;line-height:1.25;font-family:Outfit;-inkscape-font-specification:Outfit;letter-spacing:0px;word-spacing:0px;fill:#112534;fill-opacity:1"
     aria-label="QSym2"
     inkscape:label="text1"
     transform="translate(8.7759721)"><path
       style="font-weight:600;-inkscape-font-specification:'Outfit Semi-Bold';fill:#112534;fill-opacity:1"
       d="m 372.21983,336.60827 q -4.10666,0 -7.67999,-1.49333 -3.52,-1.49333 -6.18666,-4.10666 -2.66667,-2.66667 -4.16,-6.18667 -1.44,-3.57333 -1.44,-7.62666 0,-4.05333 1.44,-7.51999 1.49333,-3.52 4.10666,-6.13333 2.66667,-2.66667 6.18666,-4.10667 3.52,-1.49333 7.62667,-1.49333 4.10666,0 7.62666,1.49333 3.52,1.44 6.18666,4.10667 2.66667,2.61333 4.10667,6.13333 1.49333,3.51999 1.49333,7.57332 0,4.05334 -1.49333,7.57333 -1.44,3.52 -4.10667,6.18667 -2.61333,2.61333 -6.13333,4.10666 -3.52,1.49333 -7.57333,1.49333 z m 16.90666,2.18667 -17.17332,-17.17332 4.37333,-4.42667 17.22665,17.22666 z m -17.01332,-8.96 q 3.57333,0 6.23999,-1.6 2.72,-1.59999 4.21333,-4.42666 1.54667,-2.82666 1.54667,-6.61333 0,-2.77333 -0.90667,-5.06666 -0.85333,-2.29333 -2.45333,-3.94667 -1.6,-1.70666 -3.78666,-2.61333 -2.18667,-0.90666 -4.85333,-0.90666 -3.52,0 -6.24,1.59999 -2.66666,1.54667 -4.21333,4.37333 -1.49333,2.82667 -1.49333,6.56 0,2.82667 0.85333,5.17333 0.90667,2.34667 2.45333,4 1.6,1.65333 3.78667,2.56 2.24,0.90666 4.85333,0.90666 z m 37.11996,6.72 q -4.53333,0 -7.78666,-1.54667 -3.2,-1.54666 -5.81333,-4.63999 l 4.79999,-4.8 q 1.65334,2.18666 3.84,3.41333 2.18667,1.17333 5.33333,1.17333 2.82667,0 4.48,-1.12 1.70667,-1.12 1.70667,-3.09333 0,-1.70666 -0.96,-2.77333 -0.96,-1.06667 -2.56,-1.81333 -1.54667,-0.74667 -3.46667,-1.33333 -1.86666,-0.64 -3.78666,-1.44 -1.86667,-0.8 -3.46667,-1.97334 -1.54666,-1.22666 -2.50666,-3.09333 -0.96,-1.92 -0.96,-4.79999 0,-3.41334 1.65333,-5.81333 1.65333,-2.4 4.53333,-3.68 2.88,-1.28 6.50666,-1.28 3.84,0 6.93333,1.44 3.09334,1.44 5.06667,3.73333 l -4.8,4.8 q -1.65333,-1.81334 -3.41333,-2.66667 -1.70667,-0.85333 -3.89333,-0.85333 -2.50667,0 -3.94667,0.96 -1.44,0.96 -1.44,2.77333 0,1.54667 0.96,2.50666 0.96,0.96 2.50667,1.65334 1.6,0.69333 3.46666,1.33333 1.92,0.64 3.78667,1.44 1.92,0.8 3.46666,2.08 1.6,1.28 2.56,3.30666 0.96,1.97333 0.96,4.90667 0,5.22666 -3.68,8.21332 -3.67999,2.98667 -10.07999,2.98667 z m 26.14663,-0.32 -10.77333,-25.97332 h 7.57333 l 7.14666,19.83999 h -2.56 l 7.41333,-19.83999 h 7.62666 l -11.46666,25.97332 z m -7.14667,10.55999 7.84,-16.58665 4.26666,6.02666 -4.69333,10.55999 z m 26.45343,-10.77332 v -25.75999 h 6.98666 v 25.75999 z m 16.79999,0 v -15.19999 q 0,-2.24 -1.44,-3.46667 -1.38667,-1.28 -3.46667,-1.28 -1.38666,0 -2.50666,0.58667 -1.12,0.53333 -1.76,1.6 -0.64,1.06666 -0.64,2.56 l -2.72,-1.33334 q 0,-2.98666 1.28,-5.17333 1.33333,-2.18666 3.57333,-3.36 2.24,-1.22666 5.06667,-1.22666 2.66666,0 4.85333,1.22666 2.18666,1.17334 3.46666,3.36 1.28,2.13333 1.28,5.17333 v 16.53333 z m 16.79999,0 v -15.19999 q 0,-2.24 -1.44,-3.46667 -1.38667,-1.28 -3.46667,-1.28 -1.33333,0 -2.50666,0.58667 -1.12,0.53333 -1.76,1.6 -0.64,1.06666 -0.64,2.56 l -4,-0.96 q 0.21333,-3.09334 1.65333,-5.33333 1.44,-2.29334 3.78667,-3.52 2.34666,-1.28 5.22666,-1.28 2.88,0 5.17333,1.22666 2.29333,1.17334 3.62667,3.41334 1.33333,2.23999 1.33333,5.33333 v 16.31999 z"
       id="path14" /><path
       style="font-weight:600;font-size:42.6667px;-inkscape-font-specification:'Outfit Semi-Bold';baseline-shift:super;fill:#112534;fill-opacity:1"
       d="m 498.94253,311.36028 11.30667,-11.81867 q 1.19467,-1.28 1.92,-2.26134 0.768,-1.024 1.10934,-1.92 0.34133,-0.93867 0.34133,-1.87733 0,-1.87734 -1.23733,-2.94401 -1.19467,-1.06666 -3.11467,-1.06666 -1.96267,0 -3.49867,1.024 -1.49334,1.024 -2.81601,3.24267 l -3.968,-3.37067 q 1.792,-3.02934 4.43734,-4.56534 2.688,-1.57867 6.144,-1.57867 2.94401,0 5.12001,1.152 2.21867,1.152 3.41333,3.20001 1.19467,2.048 1.19467,4.77867 0,1.83466 -0.46933,3.328 -0.42667,1.49333 -1.49334,2.98667 -1.024,1.45067 -2.85867,3.28533 l -8.23467,8.40534 z m 0,3.32801 v -3.32801 l 4.94933,-1.70666 h 16.04268 v 5.03467 z"
       id="path15" /></g></g><g
   id="g3"
   transform="matrix(2.075872,0,0,2.075872,-186.52639,-600.88165)"
   inkscape:label="g3"><path
     style="display:inline;fill:#006c58;fill-opacity:1;stroke:none;stroke-width:0.546209;stroke-dasharray:none;stroke-opacity:1"
     d="m 109.61687,289.45988 v 22.81965 l 19.7624,11.40982 z"
     id="path7"
     inkscape:label="darkside-back"
     transform="translate(-1.1943945e-6)"
     sodipodi:nodetypes="cccc" /><path
     style="display:inline;fill:#00382e;fill-opacity:1;stroke:none;stroke-width:1.13386;stroke-dasharray:none;stroke-opacity:1"
     d="m 292.19098,307.96281 -41.0242,23.68534 h 82.04842 z"
     id="path9"
     transform="matrix(0.48172524,0,0,0.48172524,-31.138901,163.92607)"
     inkscape:label="lightside-backbottom"
     sodipodi:nodetypes="cccc" /><path
     style="display:inline;fill:#008970;fill-opacity:1;stroke:none;stroke-width:1.13386;stroke-dasharray:none;stroke-opacity:1"
     d="m 292.19099,260.59213 -41.0242,71.056 41.0242,-23.65 z"
     id="path8"
     transform="matrix(0.48172524,0,0,0.48172524,-31.138901,163.92607)"
     inkscape:label="lightside-backleft"
     sodipodi:nodetypes="cccc" /><path
     sodipodi:type="star"
     style="display:none;fill:none;fill-opacity:1;stroke:#000000;stroke-width:0.546208;stroke-linecap:square;stroke-linejoin:round;stroke-miterlimit:4.5;stroke-dasharray:none;stroke-opacity:1"
     id="path29"
     inkscape:flatsided="false"
     sodipodi:sides="3"
     sodipodi:cx="65.168793"
     sodipodi:cy="336.09525"
     sodipodi:r1="22.819651"
     sodipodi:r2="11.409826"
     sodipodi:arg1="0.52359878"
     sodipodi:arg2="1.5707963"
     inkscape:rounded="0"
     inkscape:randomized="0"
     d="m 84.93119,347.50507 -19.762397,0 -19.762397,0 9.881197,-17.11474 9.8812,-17.11474 9.881199,17.11474 z"
     inkscape:transform-center-y="-5.7049128"
     transform="translate(44.448079,-23.815716)"
     inkscape:label="back-trig-outline" /><path
     style="display:inline;fill:#28917e;fill-opacity:1;stroke:none;stroke-width:0.546209;stroke-dasharray:none;stroke-opacity:1"
     d="m 109.61687,300.82122 9.86021,17.1511 9.90219,-17.1511 z"
     id="path10"
     inkscape:label="darkside-mid"
     sodipodi:nodetypes="cccc" /><path
     style="display:inline;fill:#206a5e;fill-opacity:1;stroke:none;stroke-width:0.546209;stroke-dasharray:none;stroke-opacity:1"
     d="m 99.760359,317.97872 19.716721,-0.006 -9.86021,17.07838 z"
     id="path11"
     inkscape:label="lightside-midbottom"
     sodipodi:nodetypes="cccc" /><path
     style="display:inline;fill:#3ba18f;fill-opacity:1;stroke:none;stroke-width:0.546209;stroke-dasharray:none;stroke-opacity:1"
     d="m 89.854475,300.82122 h 19.762395 l -9.856511,17.1575 z"
     id="path12"
     inkscape:label="lightside-midleft"
     sodipodi:nodetypes="cccc" /><path
     sodipodi:type="star"
     style="display:none;fill:none;fill-opacity:1;stroke:#000000;stroke-width:0.546208;stroke-linecap:square;stroke-linejoin:round;stroke-miterlimit:4.5;stroke-dasharray:none;stroke-opacity:1"
     id="path29-5"
     inkscape:flatsided="false"
     sodipodi:sides="3"
     sodipodi:cx="65.168793"
     sodipodi:cy="336.09525"
     sodipodi:r1="22.819651"
     sodipodi:r2="11.409826"
     sodipodi:arg1="0.52359878"
     sodipodi:arg2="1.5707963"
     inkscape:rounded="0"
     inkscape:randomized="0"
     d="m 84.93119,347.50507 -19.762397,0 -19.762397,0 9.881197,-17.11474 9.8812,-17.11474 9.881199,17.11474 z"
     inkscape:transform-center-y="5.7049169"
     transform="matrix(1,0,0,-1,44.448079,648.32629)"
     inkscape:label="mid-trig-outline" /><path
     style="display:none;fill:#397b22;fill-opacity:1;stroke:none;stroke-width:0.546209;stroke-dasharray:none;stroke-opacity:1"
     d="m 109.61687,312.28128 v -11.40307 l 9.8812,17.05775 z"
     id="path4"
     inkscape:label="darkside-top" /><path
     style="display:none;fill:#4ca42d;fill-opacity:1;stroke:none;stroke-width:0.546209;stroke-dasharray:none;stroke-opacity:1"
     d="m 109.61687,300.87821 -9.881197,17.05775 9.881197,-5.65468 z"
     id="path5"
     inkscape:label="lightside-topleft" /><path
     style="display:none;fill:#4ca42d;fill-opacity:1;stroke:none;stroke-width:0.546209;stroke-dasharray:none;stroke-opacity:1"
     d="m 99.735673,317.93596 9.881197,-5.65468 9.8812,5.71081 z"
     id="path6"
     inkscape:label="lightside-topbottom" /><path
     style="display:none;fill:none;fill-opacity:1;stroke:#000000;stroke-width:0.546208;stroke-dasharray:none;stroke-opacity:1"
     d="m 109.61687,300.82122 9.85688,17.15685 -19.738077,-0.0421 z"
     id="path3"
     inkscape:label="top-trig-outline" /><path
     style="display:none;fill:none;stroke:#000000;stroke-width:0.546208;stroke-linecap:butt;stroke-linejoin:miter;stroke-dasharray:none;stroke-opacity:1"
     d="m 109.61687,289.45988 v 22.83667 -0.017"
     id="path30"
     sodipodi:nodetypes="ccc"
     inkscape:label="radialline-top" /><path
     style="display:none;fill:none;stroke:#000000;stroke-width:0.546208;stroke-linecap:butt;stroke-linejoin:miter;stroke-dasharray:none;stroke-opacity:1"
     d="m 129.37927,323.68936 -19.7624,-11.39454"
     id="path32"
     sodipodi:nodetypes="cc"
     inkscape:label="radialline-right" /><path
     style="display:none;fill:#ffffff;stroke:#000000;stroke-width:0.546208;stroke-dasharray:none;stroke-opacity:1"
     d="M 89.854474,323.68935 109.61687,312.28128"
     id="path2"
     inkscape:label="radialline-left" /></g></svg>
